<svg xmlns="http://www.w3.org/2000/svg" xmlns:xlink="http://www.w3.org/1999/xlink" version="1.1" width="125" height="125" viewBox="0 0 256 256" xml:space="preserve">

<defs>
</defs>
<g style="stroke: none; stroke-width: 0; stroke-dasharray: none; stroke-linecap: butt; stroke-linejoin: miter; stroke-miterlimit: 10; fill: none; fill-rule: nonzero; opacity: 1;" transform="translate(1.4065934065934016 1.4065934065934016) scale(2.81 2.81)" >
	<path d="M 52.38 36.325 H 24.453 c -3.085 0 -5.585 -2.501 -5.585 -5.585 V 14.176 c 0 -3.085 2.501 -5.585 5.585 -5.585 H 52.38 c 3.085 0 5.585 2.501 5.585 5.585 v 16.564 C 57.966 33.824 55.465 36.325 52.38 36.325 z" style="stroke: none; stroke-width: 1; stroke-dasharray: none; stroke-linecap: butt; stroke-linejoin: miter; stroke-miterlimit: 10; fill: rgb(254,122,182); fill-rule: nonzero; opacity: 1;" transform=" matrix(1 0 0 1 0 0) " stroke-linecap="round" />
	<path d="M 42.889 81.41 H 14.961 c -3.085 0 -5.585 -2.501 -5.585 -5.585 V 59.261 c 0 -3.085 2.501 -5.585 5.585 -5.585 h 27.927 c 3.085 0 5.585 2.501 5.585 5.585 v 16.564 C 48.474 78.909 45.973 81.41 42.889 81.41 z" style="stroke: none; stroke-width: 1; stroke-dasharray: none; stroke-linecap: butt; stroke-linejoin: miter; stroke-miterlimit: 10; fill: rgb(254,122,182); fill-rule: nonzero; opacity: 1;" transform=" matrix(1 0 0 1 0 0) " stroke-linecap="round" />
	<path d="M 88.027 81.41 h -9.865 c -1.09 0 -1.973 -0.883 -1.973 -1.973 v -5.851 c 0 -1.09 0.883 -1.973 1.973 -1.973 h 9.865 c 1.09 0 1.973 0.883 1.973 1.973 v 5.851 C 90 80.527 89.117 81.41 88.027 81.41 z" style="stroke: none; stroke-width: 1; stroke-dasharray: none; stroke-linecap: butt; stroke-linejoin: miter; stroke-miterlimit: 10; fill: rgb(117,205,213); fill-rule: nonzero; opacity: 1;" transform=" matrix(1 0 0 1 0 0) " stroke-linecap="round" />
	<path d="M 85.654 18.387 h -9.865 c -1.09 0 -1.973 -0.883 -1.973 -1.973 v -5.851 c 0 -1.09 0.883 -1.973 1.973 -1.973 h 9.865 c 1.09 0 1.973 0.883 1.973 1.973 v 5.851 C 87.627 17.504 86.744 18.387 85.654 18.387 z" style="stroke: none; stroke-width: 1; stroke-dasharray: none; stroke-linecap: butt; stroke-linejoin: miter; stroke-miterlimit: 10; fill: rgb(254,122,182); fill-rule: nonzero; opacity: 1;" transform=" matrix(1 0 0 1 0 0) " stroke-linecap="round" />
	<path d="M 11.838 47.308 H 1.973 C 0.883 47.308 0 46.425 0 45.335 v -5.851 c 0 -1.09 0.883 -1.973 1.973 -1.973 h 9.865 c 1.09 0 1.973 0.883 1.973 1.973 v 5.851 C 13.811 46.425 12.927 47.308 11.838 47.308 z" style="stroke: none; stroke-width: 1; stroke-dasharray: none; stroke-linecap: butt; stroke-linejoin: miter; stroke-miterlimit: 10; fill: rgb(117,205,213); fill-rule: nonzero; opacity: 1;" transform=" matrix(1 0 0 1 0 0) " stroke-linecap="round" />
	<path d="M 77.843 63.399 H 40.789 c -4.093 0 -7.411 -3.318 -7.411 -7.411 V 34.012 c 0 -4.093 3.318 -7.411 7.411 -7.411 h 37.054 c 4.093 0 7.411 3.318 7.411 7.411 v 21.977 C 85.254 60.081 81.936 63.399 77.843 63.399 z" style="stroke: none; stroke-width: 1; stroke-dasharray: none; stroke-linecap: butt; stroke-linejoin: miter; stroke-miterlimit: 10; fill: rgb(117,205,213); fill-rule: nonzero; opacity: 1;" transform=" matrix(1 0 0 1 0 0) " stroke-linecap="round" />
</g>
</svg>
